<svg width="23" height="22" viewBox="0 0 23 22" fill="none" xmlns="http://www.w3.org/2000/svg">
<g clip-path="url(#clip0_810_66768)">
<g clip-path="url(#clip1_810_66768)">
<g clip-path="url(#clip2_810_66768)">
<mask id="mask0_810_66768" style="mask-type:luminance" maskUnits="userSpaceOnUse" x="0" y="0" width="22" height="22">
<path d="M21.5679 0.585938H0.174316V21.9796H21.5679V0.585938Z" fill="white"/>
</mask>
<g mask="url(#mask0_810_66768)">
<path fill-rule="evenodd" clip-rule="evenodd" d="M1.64501 10.8942C7.38781 8.39211 11.2173 6.74261 13.1333 5.94565C18.604 3.67018 19.7408 3.27491 20.4818 3.26186C20.6447 3.25899 21.0091 3.29937 21.2452 3.49089C21.4444 3.6526 21.4992 3.87105 21.5255 4.02437C21.5517 4.17769 21.5844 4.52696 21.5584 4.79987C21.262 7.91482 19.9792 15.474 19.3266 18.9628C19.0504 20.439 18.5067 20.934 17.9803 20.9824C16.8363 21.0877 15.9676 20.2264 14.8596 19.5001C13.1258 18.3636 12.1463 17.6561 10.4633 16.547C8.5184 15.2653 9.77925 14.5608 10.8876 13.4096C11.1778 13.1083 16.2182 8.52369 16.3157 8.10779C16.3279 8.05578 16.3392 7.86189 16.2241 7.75951C16.1089 7.65713 15.9388 7.69214 15.8162 7.71999C15.6423 7.75945 12.8725 9.59022 7.50684 13.2122C6.72064 13.752 6.00853 14.015 5.37051 14.0012C4.66714 13.9861 3.31412 13.6036 2.3083 13.2766C1.07462 12.8756 0.0941192 12.6636 0.179499 11.9825C0.22397 11.6278 0.712476 11.265 1.64501 10.8942Z" fill="#1A1A1A"/>
</g>
</g>
</g>
</g>
<defs>
<clipPath id="clip0_810_66768">
<rect width="21.3936" height="21.3936" fill="white" transform="translate(0.174561 0.585938)"/>
</clipPath>
<clipPath id="clip1_810_66768">
<rect width="21.3936" height="21.3936" fill="white" transform="translate(0.174561 0.585938)"/>
</clipPath>
<clipPath id="clip2_810_66768">
<rect width="21.3936" height="21.3936" fill="white" transform="translate(0.174561 0.585938)"/>
</clipPath>
</defs>
</svg>
