<svg width="17" height="17" viewBox="0 0 17 17" fill="none" xmlns="http://www.w3.org/2000/svg">
<g clip-path="url(#clip0_1470_7417)">
<g clip-path="url(#clip1_1470_7417)">
<g clip-path="url(#clip2_1470_7417)">
<mask id="mask0_1470_7417" style="mask-type:luminance" maskUnits="userSpaceOnUse" x="0" y="0" width="17" height="17">
<path d="M16.159 0.96875H0.73291V16.3949H16.159V0.96875Z" fill="white"/>
</mask>
<g mask="url(#mask0_1470_7417)">
<path fill-rule="evenodd" clip-rule="evenodd" d="M1.79337 8.39995C5.93429 6.59582 8.69556 5.40642 10.0772 4.83177C14.0219 3.19101 14.8416 2.90599 15.3758 2.89658C15.4933 2.89452 15.7561 2.92363 15.9263 3.06173C16.07 3.17834 16.1095 3.33585 16.1285 3.4464C16.1473 3.55696 16.1709 3.8088 16.1522 4.00559C15.9385 6.25166 15.0135 11.7023 14.5429 14.2179C14.3438 15.2824 13.9517 15.6393 13.5721 15.6742C12.7472 15.7501 12.1209 15.1291 11.3219 14.6054C10.0718 13.7859 9.36544 13.2757 8.15192 12.476C6.74951 11.5518 7.65867 11.0439 8.45787 10.2137C8.66709 9.99649 12.3015 6.69069 12.3719 6.3908C12.3807 6.3533 12.3888 6.21349 12.3058 6.13967C12.2227 6.06585 12.1001 6.09109 12.0117 6.11117C11.8863 6.13963 9.88909 7.45973 6.02012 10.0714C5.45322 10.4606 4.93975 10.6503 4.47969 10.6403C3.97251 10.6294 2.99691 10.3536 2.27165 10.1178C1.38209 9.82867 0.675083 9.67582 0.736647 9.18469C0.768714 8.92894 1.12096 8.66734 1.79337 8.39995Z" fill="#808080"/>
</g>
</g>
</g>
</g>
<defs>
<clipPath id="clip0_1470_7417">
<rect width="15.4261" height="15.4261" fill="white" transform="translate(0.73291 0.96875)"/>
</clipPath>
<clipPath id="clip1_1470_7417">
<rect width="15.4261" height="15.4261" fill="white" transform="translate(0.73291 0.96875)"/>
</clipPath>
<clipPath id="clip2_1470_7417">
<rect width="15.4261" height="15.4261" fill="white" transform="translate(0.73291 0.96875)"/>
</clipPath>
</defs>
</svg>
