<svg width="23" height="24" viewBox="0 0 23 24" fill="none" xmlns="http://www.w3.org/2000/svg">
<g clip-path="url(#clip0_1449_13308)">
<g clip-path="url(#clip1_1449_13308)">
<g clip-path="url(#clip2_1449_13308)">
<mask id="mask0_1449_13308" style="mask-type:luminance" maskUnits="userSpaceOnUse" x="0" y="0" width="23" height="24">
<path d="M22.625 0.6875H0V23.3125H22.625V0.6875Z" fill="white"/>
</mask>
<g mask="url(#mask0_1449_13308)">
<path fill-rule="evenodd" clip-rule="evenodd" d="M1.55535 11.5874C7.62869 8.94131 11.6786 7.19687 13.7049 6.35404C19.4905 3.9476 20.6927 3.52957 21.4763 3.51577C21.6486 3.51274 22.034 3.55544 22.2836 3.75798C22.4943 3.92901 22.5523 4.16003 22.5801 4.32217C22.6078 4.48432 22.6424 4.85369 22.6149 5.14231C22.3015 8.43655 20.9448 16.4308 20.2547 20.1204C19.9626 21.6816 19.3876 22.2051 18.8309 22.2563C17.621 22.3676 16.7023 21.4568 15.5306 20.6887C13.697 19.4867 12.661 18.7385 10.8812 17.5656C8.82435 16.2101 10.1578 15.4651 11.3299 14.2476C11.6368 13.929 16.9673 9.08047 17.0705 8.64063C17.0834 8.58562 17.0954 8.38057 16.9736 8.2723C16.8518 8.16403 16.6719 8.20105 16.5422 8.2305C16.3583 8.27224 13.4291 10.2084 7.75457 14.0388C6.92312 14.6097 6.17003 14.8879 5.49527 14.8733C4.75142 14.8573 3.32053 14.4527 2.25682 14.1069C0.952126 13.6828 -0.0848132 13.4586 0.00548113 12.7383C0.052512 12.3632 0.569135 11.9795 1.55535 11.5874Z" fill="black"/>
</g>
</g>
</g>
</g>
<defs>
<clipPath id="clip0_1449_13308">
<rect width="22.625" height="22.625" fill="white" transform="translate(0 0.6875)"/>
</clipPath>
<clipPath id="clip1_1449_13308">
<rect width="22.625" height="22.625" fill="white" transform="translate(0 0.6875)"/>
</clipPath>
<clipPath id="clip2_1449_13308">
<rect width="22.625" height="22.625" fill="white" transform="translate(0 0.6875)"/>
</clipPath>
</defs>
</svg>
