<svg width="23" height="23" viewBox="0 0 23 23" fill="none" xmlns="http://www.w3.org/2000/svg">
<g clip-path="url(#clip0_1047_16456)">
<g clip-path="url(#clip1_1047_16456)">
<g clip-path="url(#clip2_1047_16456)">
<g mask="url(#mask0_1047_16456)">
<path fill-rule="evenodd" clip-rule="evenodd" d="M1.93035 11.0874C8.00369 8.44131 12.0536 6.69687 14.0799 5.85404C19.8655 3.4476 21.0677 3.02957 21.8513 3.01577C22.0236 3.01274 22.409 3.05544 22.6586 3.25798C22.8693 3.42901 22.9273 3.66003 22.9551 3.82217C22.9828 3.98432 23.0174 4.35369 22.9899 4.64231C22.6765 7.93655 21.3198 15.9308 20.6297 19.6204C20.3376 21.1816 19.7626 21.7051 19.2059 21.7563C17.996 21.8676 17.0773 20.9568 15.9056 20.1887C14.072 18.9867 13.036 18.2385 11.2562 17.0656C9.19935 15.7101 10.5328 14.9651 11.7049 13.7476C12.0118 13.429 17.3423 8.58047 17.4455 8.14063C17.4584 8.08562 17.4704 7.88057 17.3486 7.7723C17.2268 7.66403 17.0469 7.70105 16.9172 7.7305C16.7333 7.77224 13.8041 9.70838 8.12957 13.5388C7.29812 14.1097 6.54503 14.3879 5.87027 14.3733C5.12642 14.3573 3.69553 13.9527 2.63182 13.6069C1.32713 13.1828 0.290187 12.9586 0.380481 12.2383C0.427512 11.8632 0.944135 11.4795 1.93035 11.0874Z" fill="#CDAFFF"/>
</g>
</g>
</g>
</g>
<defs>
<clipPath id="clip0_1047_16456">
<rect width="22.625" height="22.625" fill="white" transform="translate(0.375 0.1875)"/>
</clipPath>
<clipPath id="clip1_1047_16456">
<rect width="22.625" height="22.625" fill="white" transform="translate(0.375 0.1875)"/>
</clipPath>
<clipPath id="clip2_1047_16456">
<rect width="22.625" height="22.625" fill="white" transform="translate(0.375 0.1875)"/>
</clipPath>
</defs>
</svg>
