<svg width="252" height="80" viewBox="0 0 252 80" fill="none" xmlns="http://www.w3.org/2000/svg">
<g opacity="0.5" clip-path="url(#clip0_118_17252)">
<path d="M95.7385 35.0912C93.0479 37.2437 92.6443 41.2122 94.7968 43.9028C96.9492 46.5935 100.918 46.997 103.608 44.8446C106.299 42.6921 106.703 38.7234 104.55 36.0329C102.398 33.3423 98.429 32.9387 95.7385 35.0912Z" fill="#7D48E8"/>
<path d="M90.0884 49.5495C88.7431 50.6258 88.6085 52.5764 89.6848 53.8544C90.761 55.1997 92.7117 55.3343 93.9897 54.258C95.335 53.1818 95.4695 51.2311 94.3933 49.9531C93.3843 48.6078 91.4337 48.4733 90.0884 49.5495Z" fill="#7D48E8"/>
<path d="M93.9897 30.4494C95.335 29.3732 95.4695 27.4225 94.3933 26.1445C93.317 24.7992 91.3664 24.6647 90.0884 25.7409C88.7431 26.8172 88.6085 28.7678 89.6848 30.0459C90.761 31.3239 92.7117 31.5257 93.9897 30.4494Z" fill="#7D48E8"/>
<path d="M79.0569 37.3093C80.604 37.9147 82.3529 37.5783 83.5636 36.5694C84.6399 35.7622 86.1197 35.4932 87.465 36.0313C88.3394 36.3677 89.0793 36.973 89.5502 37.6457L89.6175 37.7802C89.8192 38.1165 90.1555 38.3855 90.5591 38.5201C91.5008 38.8564 92.5771 38.3855 92.9807 37.4438C93.3169 36.5022 92.8461 35.4259 91.9044 35.0223C91.5008 34.8878 91.03 34.8878 90.6264 35.0223C89.752 35.2914 88.8103 35.2914 87.9358 34.955C86.6578 34.4842 85.7161 33.408 85.3125 32.1972L85.2452 32.0627C85.2452 31.9954 85.2452 31.9954 85.178 31.9282V31.8609C84.8416 30.3811 83.7654 29.103 82.2856 28.5649C79.8641 27.6905 77.2408 28.9012 76.2991 31.3228C75.4246 33.7443 76.6354 36.4349 79.0569 37.3093Z" fill="#7D48E8"/>
<path d="M90.6264 44.977C90.6264 44.9098 90.6264 44.9098 90.6264 44.977C91.03 45.1116 91.5008 45.1116 91.9044 44.977C92.8461 44.6408 93.3843 43.5645 92.9807 42.5556C92.6444 41.6139 91.5681 41.0757 90.5591 41.4793C90.1555 41.6139 89.8192 41.8829 89.6175 42.2192L89.5502 42.3537C89.0794 43.0937 88.3394 43.699 87.465 43.9681C86.1197 44.4389 84.6399 44.2372 83.5636 43.43C82.3529 42.421 80.6712 42.152 79.0569 42.6901C76.6354 43.5645 75.4246 46.2551 76.2991 48.6766C77.1735 51.0982 79.8641 52.309 82.2856 51.4345C83.8327 50.8963 84.8416 49.6183 85.178 48.1385V48.0713C85.178 48.004 85.178 48.004 85.2452 47.9367L85.3125 47.8022C85.7161 46.5914 86.5906 45.5152 87.9358 45.0444C88.8103 44.6408 89.752 44.6408 90.6264 44.977Z" fill="#7D48E8"/>
<path d="M158.092 25H153.048V54.9327H158.092V25Z" fill="#7D48E8"/>
<path d="M173.228 40.9417V35.8968H167.376V32.9372C167.376 31.3229 168.654 30.0448 170.268 29.9776H173.16V25.5381V25H170.201C165.828 25 162.263 28.565 162.263 32.9372V35.8968H159.371V40.9417H162.263V55H167.308V40.9417H173.228Z" fill="#7D48E8"/>
<path d="M175.985 49.9531H170.94V54.9979H175.985V49.9531Z" fill="#7D48E8"/>
<path d="M140.806 33.207C138.115 33.207 135.626 34.216 133.743 35.8303V33.207H129.976V35.8976C128.093 34.2833 125.604 33.2743 122.913 33.2743C116.927 33.2743 112.084 38.1174 112.084 44.1039C112.084 50.0905 116.927 54.9335 122.913 54.9335C125.604 54.9335 128.093 53.9245 129.976 52.3102V54.9335H133.743V52.3102C135.626 53.9245 138.115 54.9335 140.806 54.9335C143.833 54.9335 146.523 53.7227 148.474 51.772L145.649 48.947C144.505 49.8886 143.093 50.494 141.478 50.494C138.586 50.494 136.164 48.6106 135.357 46.0546H147.667H150.963H151.568C151.703 45.4492 151.703 44.8438 151.703 44.1712C151.703 38.1174 146.86 33.207 140.806 33.207ZM123.519 50.5613C119.954 50.5613 117.061 47.6689 117.061 44.1039C117.061 40.5388 119.954 37.6465 123.519 37.6465C127.084 37.6465 129.976 40.5388 129.976 44.1039C129.976 47.6689 127.084 50.5613 123.519 50.5613ZM135.29 42.2205C136.03 39.5299 138.519 37.5119 141.478 37.5119C144.438 37.5119 146.927 39.5299 147.667 42.2205H135.29Z" fill="#7D48E8"/>
</g>
<defs>
<clipPath id="clip0_118_17252">
<rect width="99.9694" height="50" fill="white" transform="translate(76.0154 15)"/>
</clipPath>
</defs>
</svg>
