<svg width="115" height="37" viewBox="0 0 115 37" fill="none" xmlns="http://www.w3.org/2000/svg">
<g opacity="0.5" clip-path="url(#clip0_810_58999)">
<path d="M44.2254 16.5154C43.0074 17.4898 42.8247 19.2863 43.7991 20.5043C44.7735 21.7223 46.57 21.905 47.788 20.9306C49.006 19.9562 49.1887 18.1597 48.2143 16.9417C47.2399 15.7237 45.4434 15.541 44.2254 16.5154Z" fill="#7D48E8"/>
<path d="M41.6677 23.0611C41.0587 23.5483 40.9978 24.4313 41.485 25.0099C41.9722 25.6189 42.8552 25.6798 43.4337 25.1926C44.0427 24.7054 44.1036 23.8224 43.6164 23.2438C43.1597 22.6348 42.2767 22.5739 41.6677 23.0611Z" fill="#7D48E8"/>
<path d="M43.4337 14.4152C44.0427 13.928 44.1036 13.045 43.6164 12.4665C43.1292 11.8575 42.2462 11.7966 41.6677 12.2838C41.0587 12.771 40.9978 13.654 41.485 14.2325C41.9722 14.8111 42.8552 14.9024 43.4337 14.4152Z" fill="#7D48E8"/>
<path d="M36.6741 17.5204C37.3744 17.7945 38.1661 17.6422 38.7142 17.1855C39.2014 16.8201 39.8713 16.6983 40.4803 16.9419C40.8761 17.0942 41.2111 17.3682 41.4242 17.6727L41.4547 17.7336C41.546 17.8858 41.6982 18.0076 41.8809 18.0685C42.3072 18.2208 42.7944 18.0076 42.9771 17.5813C43.1293 17.1551 42.9162 16.6679 42.4899 16.4852C42.3072 16.4243 42.0941 16.4243 41.9114 16.4852C41.5156 16.607 41.0893 16.607 40.6934 16.4547C40.1149 16.2416 39.6886 15.7544 39.5059 15.2063L39.4754 15.1454C39.4754 15.1149 39.4754 15.1149 39.445 15.0845V15.054C39.2927 14.3841 38.8055 13.8056 38.1356 13.562C37.0395 13.1662 35.8519 13.7143 35.4257 14.8104C35.0298 15.9066 35.5779 17.1246 36.6741 17.5204Z" fill="#7D48E8"/>
<path d="M41.9114 20.9904C41.9114 20.96 41.9114 20.96 41.9114 20.9904C42.0941 21.0513 42.3072 21.0513 42.4899 20.9904C42.9162 20.8382 43.1598 20.351 42.9771 19.8943C42.8249 19.468 42.3377 19.2244 41.8809 19.4071C41.6982 19.468 41.546 19.5898 41.4547 19.742L41.4242 19.8029C41.2111 20.1379 40.8761 20.4119 40.4803 20.5337C39.8713 20.7468 39.2014 20.6555 38.7142 20.2901C38.1661 19.8334 37.4049 19.7116 36.6741 19.9552C35.5779 20.351 35.0298 21.569 35.4257 22.6651C35.8215 23.7613 37.0395 24.3094 38.1356 23.9136C38.836 23.67 39.2927 23.0914 39.445 22.4216V22.3911C39.445 22.3607 39.445 22.3607 39.4754 22.3302L39.5059 22.2693C39.6886 21.7212 40.0844 21.234 40.6934 21.0209C41.0893 20.8382 41.5156 20.8382 41.9114 20.9904Z" fill="#7D48E8"/>
<path d="M72.4519 11.9473H70.1682V25.4972H72.4519V11.9473Z" fill="#7D48E8"/>
<path d="M79.3034 19.1638V16.8801H76.6542V15.5403C76.6542 14.8095 77.2328 14.231 77.9636 14.2005H79.2728V12.1909V11.9473H77.933C75.9539 11.9473 74.3401 13.5611 74.3401 15.5403V16.8801H73.0308V19.1638H74.3401V25.5277H76.6238V19.1638H79.3034Z" fill="#7D48E8"/>
<path d="M80.5515 23.2441H78.2678V25.5278H80.5515V23.2441Z" fill="#7D48E8"/>
<path d="M64.6265 15.6621C63.4085 15.6621 62.2819 16.1188 61.4293 16.8496V15.6621H59.7242V16.8801C58.8716 16.1493 57.745 15.6926 56.527 15.6926C53.817 15.6926 51.6246 17.8849 51.6246 20.5949C51.6246 23.3049 53.817 25.4973 56.527 25.4973C57.745 25.4973 58.8716 25.0405 59.7242 24.3097V25.4973H61.4293V24.3097C62.2819 25.0405 63.4085 25.4973 64.6265 25.4973C65.9968 25.4973 67.2147 24.9492 68.0977 24.0661L66.8189 22.7873C66.3012 23.2135 65.6618 23.4876 64.931 23.4876C63.6217 23.4876 62.5255 22.635 62.1601 21.478H67.7323H69.2244H69.4984C69.5593 21.2039 69.5593 20.9299 69.5593 20.6254C69.5593 17.8849 67.367 15.6621 64.6265 15.6621ZM56.801 23.518C55.1872 23.518 53.8779 22.2087 53.8779 20.5949C53.8779 18.9811 55.1872 17.6718 56.801 17.6718C58.4148 17.6718 59.7242 18.9811 59.7242 20.5949C59.7242 22.2087 58.4148 23.518 56.801 23.518ZM62.1297 19.7423C62.4646 18.5243 63.5912 17.6109 64.931 17.6109C66.2708 17.6109 67.3974 18.5243 67.7323 19.7423H62.1297Z" fill="#7D48E8"/>
</g>
<defs>
<clipPath id="clip0_810_58999">
<rect width="45.2542" height="22.6341" fill="white" transform="translate(35.2972 7.41992)"/>
</clipPath>
</defs>
</svg>
