<svg width="252" height="80" viewBox="0 0 252 80" fill="none" xmlns="http://www.w3.org/2000/svg">
<g opacity="0.5" clip-path="url(#clip0_118_17254)">
<path d="M82.0381 40.0391C80.8752 41.165 79.0971 41.7311 76.7036 41.7311H72.7658V50.2835H70.0894V29.8008H76.7036C79.0171 29.8008 80.7768 30.3607 81.9766 31.4743C83.1826 32.5942 83.7855 34.0339 83.7855 35.7936C83.7855 37.5533 83.201 38.9131 82.0381 40.0391ZM79.9954 38.5562C80.703 37.9102 81.0537 36.9873 81.0537 35.7936C81.0537 33.2648 79.6016 32.0035 76.7036 32.0035H72.7658V39.5284H76.7036C78.1926 39.5284 79.2878 39.2023 79.9954 38.5562Z" fill="#7D48E8"/>
<path d="M87.2003 31.0313C86.8496 30.6806 86.6711 30.2499 86.6711 29.7392C86.6711 29.2285 86.8496 28.7978 87.2003 28.4471C87.551 28.0964 87.9817 27.918 88.4924 27.918C89.0031 27.918 89.3968 28.0964 89.7414 28.4471C90.086 28.7978 90.2582 29.2285 90.2582 29.7392C90.2582 30.2499 90.086 30.6806 89.7414 31.0313C89.3968 31.382 88.9846 31.5604 88.4924 31.5604C88.0002 31.5604 87.551 31.382 87.2003 31.0313ZM89.7845 34.1754V50.2835H87.108V34.1754H89.7845Z" fill="#7D48E8"/>
<path d="M102.742 50.2816L98.9214 44.2888L95.2482 50.2816H92.4548L97.654 42.2891L92.4548 34.1797H95.482L99.3029 40.1479L102.945 34.1797H105.739L100.564 42.1414L105.763 50.2816H102.736H102.742Z" fill="#7D48E8"/>
<path d="M108.501 31.0313C108.151 30.6806 107.972 30.2499 107.972 29.7392C107.972 29.2285 108.151 28.7978 108.501 28.4471C108.852 28.0964 109.283 27.918 109.793 27.918C110.304 27.918 110.698 28.0964 111.042 28.4471C111.387 28.7978 111.559 29.2285 111.559 29.7392C111.559 30.2499 111.387 30.6806 111.042 31.0313C110.698 31.382 110.279 31.5604 109.793 31.5604C109.307 31.5604 108.852 31.382 108.501 31.0313ZM111.085 34.1754V50.2835H108.409V34.1754H111.085Z" fill="#7D48E8"/>
<path d="M130.251 43.2272H117.38C117.478 44.8146 118.02 46.0513 119.01 46.9435C120.001 47.8356 121.201 48.2786 122.61 48.2786C123.766 48.2786 124.732 48.0079 125.502 47.4726C126.271 46.9373 126.818 46.2113 127.132 45.313H130.012C129.581 46.8635 128.719 48.1187 127.427 49.0908C126.135 50.063 124.529 50.549 122.61 50.549C121.084 50.549 119.718 50.2045 118.512 49.5215C117.306 48.8386 116.365 47.8603 115.675 46.5989C114.986 45.3376 114.648 43.8732 114.648 42.2058C114.648 40.5384 114.98 39.0802 115.645 37.825C116.309 36.5698 117.244 35.6038 118.45 34.9332C119.656 34.2625 121.041 33.918 122.61 33.918C124.179 33.918 125.489 34.2502 126.664 34.9147C127.84 35.5792 128.744 36.496 129.384 37.665C130.018 38.8279 130.338 40.1508 130.338 41.6151C130.338 42.1258 130.307 42.6611 130.251 43.2333V43.2272ZM126.898 38.4218C126.449 37.6896 125.834 37.1297 125.065 36.7483C124.289 36.3668 123.434 36.1761 122.493 36.1761C121.139 36.1761 119.989 36.6068 119.041 37.4681C118.094 38.3295 117.546 39.5232 117.411 41.0552H127.581C127.581 40.0339 127.354 39.1602 126.904 38.428L126.898 38.4218Z" fill="#7D48E8"/>
<path d="M145.812 40.0391C144.649 41.165 142.871 41.7311 140.478 41.7311H136.54V50.2835H133.863V29.8008H140.478C142.791 29.8008 144.545 30.3607 145.751 31.4743C146.956 32.588 147.559 34.0339 147.559 35.7936C147.559 37.5533 146.975 38.9131 145.812 40.0391ZM143.769 38.5562C144.477 37.9102 144.828 36.9873 144.828 35.7936C144.828 33.2648 143.376 32.0035 140.478 32.0035H136.54V39.5284H140.478C141.967 39.5284 143.062 39.2023 143.769 38.5562Z" fill="#7D48E8"/>
<path d="M153.805 49.5215C152.58 48.8386 151.62 47.8603 150.925 46.5989C150.23 45.3376 149.879 43.8732 149.879 42.2058C149.879 40.5384 150.236 39.1048 150.95 37.8435C151.663 36.5821 152.642 35.61 153.872 34.9332C155.109 34.2564 156.487 33.918 158.013 33.918C159.539 33.918 160.923 34.2564 162.154 34.9332C163.391 35.61 164.363 36.576 165.077 37.825C165.79 39.0802 166.147 40.5384 166.147 42.2058C166.147 43.8732 165.778 45.3376 165.046 46.5989C164.314 47.8603 163.317 48.8386 162.062 49.5215C160.807 50.2045 159.416 50.549 157.89 50.549C156.364 50.549 155.017 50.2045 153.792 49.5215H153.805ZM160.61 47.5218C161.453 47.0727 162.136 46.3959 162.652 45.4914C163.169 44.5931 163.434 43.4918 163.434 42.1997C163.434 40.9076 163.182 39.8124 162.671 38.9079C162.16 38.0096 161.496 37.3328 160.671 36.8959C159.847 36.4529 158.955 36.2376 157.995 36.2376C157.035 36.2376 156.118 36.4591 155.306 36.8959C154.494 37.3389 153.842 38.0096 153.349 38.9079C152.857 39.8124 152.617 40.9076 152.617 42.1997C152.617 43.4918 152.857 44.6177 153.337 45.5222C153.817 46.4266 154.457 47.0973 155.263 47.5342C156.069 47.9772 156.949 48.1925 157.909 48.1925C158.868 48.1925 159.773 47.971 160.61 47.5157V47.5218Z" fill="#7D48E8"/>
<path d="M169.777 31.0313C169.426 30.6806 169.248 30.2499 169.248 29.7392C169.248 29.2285 169.426 28.7978 169.777 28.4471C170.128 28.0964 170.559 27.918 171.069 27.918C171.58 27.918 171.974 28.0964 172.318 28.4471C172.663 28.7978 172.835 29.2285 172.835 29.7392C172.835 30.2499 172.663 30.6806 172.318 31.0313C171.974 31.382 171.555 31.5604 171.069 31.5604C170.583 31.5604 170.128 31.382 169.777 31.0313ZM172.361 34.1754V50.2835H169.685V34.1754H172.361Z" fill="#7D48E8"/>
<path d="M189.528 35.6649C190.74 36.8524 191.349 38.5567 191.349 40.7902V50.284H188.703V41.1717C188.703 39.5658 188.303 38.3352 187.497 37.4861C186.691 36.637 185.596 36.2063 184.206 36.2063C182.815 36.2063 181.671 36.6493 180.84 37.5292C180.009 38.409 179.591 39.695 179.591 41.3808V50.284H176.915V34.1759H179.591V36.4709C180.12 35.6464 180.84 35.0127 181.751 34.5635C182.661 34.1144 183.664 33.8867 184.766 33.8867C186.722 33.8867 188.31 34.4774 189.528 35.6649Z" fill="#7D48E8"/>
<path d="M198.991 36.3841V45.8779C198.991 46.6593 199.157 47.213 199.489 47.5391C199.821 47.8652 200.4 48.0252 201.224 48.0252H203.193V50.2894H200.781C199.292 50.2894 198.173 49.9449 197.428 49.2619C196.684 48.579 196.308 47.4468 196.308 45.884V36.3902H194.222V34.1875H196.308V30.1328H198.985V34.1875H203.187V36.3902H198.985L198.991 36.3841Z" fill="#7D48E8"/>
<path d="M208.805 49.9159C207.826 49.4975 207.051 48.9068 206.485 48.15C205.919 47.3932 205.605 46.5318 205.544 45.5474H208.306C208.386 46.3534 208.762 47.0056 209.438 47.5163C210.115 48.027 211.001 48.2792 212.096 48.2792C213.118 48.2792 213.918 48.0577 214.508 47.6024C215.099 47.1471 215.388 46.5811 215.388 45.8981C215.388 45.2151 215.074 44.6675 214.447 44.323C213.819 43.9784 212.847 43.64 211.537 43.3078C210.343 42.994 209.365 42.674 208.614 42.3541C207.857 42.028 207.211 41.548 206.676 40.9143C206.134 40.2806 205.87 39.4376 205.87 38.404C205.87 37.5795 206.116 36.8288 206.602 36.1397C207.094 35.4568 207.789 34.9092 208.688 34.5092C209.586 34.1093 210.62 33.9062 211.77 33.9062C213.555 33.9062 214.994 34.3554 216.09 35.2599C217.185 36.1643 217.776 37.3949 217.855 38.9639H215.179C215.117 38.1209 214.779 37.4441 214.164 36.9334C213.549 36.4228 212.718 36.1705 211.678 36.1705C210.718 36.1705 209.955 36.3735 209.383 36.7858C208.817 37.198 208.534 37.7333 208.534 38.404C208.534 38.9331 208.706 39.37 209.051 39.7145C209.395 40.0591 209.826 40.3298 210.343 40.539C210.86 40.742 211.58 40.9758 212.503 41.2281C213.659 41.5419 214.601 41.8495 215.327 42.151C216.053 42.4525 216.674 42.9078 217.191 43.5169C217.708 44.1261 217.979 44.9198 217.997 45.8981C217.997 46.7779 217.751 47.5717 217.265 48.2792C216.773 48.9868 216.083 49.5406 215.191 49.9405C214.299 50.3404 213.278 50.5435 212.121 50.5435C210.884 50.5435 209.783 50.3343 208.799 49.9097L208.805 49.9159Z" fill="#7D48E8"/>
<path d="M50.7695 36.2109H46.401L44.2168 37.4723V39.9949L48.5853 45.0402L52.9538 39.9949V37.4723L50.7695 36.2109Z" fill="#7D48E8"/>
<path d="M48.5977 23.1484L34.0032 31.5716V48.4242L36.5566 49.9009V46.9537V42.1976V33.0483L48.5977 26.0956L60.6387 33.0483V46.9537L48.5977 53.9064L44.2107 51.3714V54.3186L48.5977 56.8536L63.1921 48.4242V31.5716L48.5977 23.1484Z" fill="#7D48E8"/>
<path d="M48.5978 29.0508L39.1101 34.5268V43.8729V45.4788V48.426V50.4687V51.3794L41.6574 52.8499V50.4687V49.9027V46.9493V43.8729V41.2826H41.6635V35.9973L48.5978 31.998L55.532 35.9973V44.0021L48.5978 48.0076L44.2108 45.4788V48.426L48.5978 50.9548L58.0854 45.4788V34.5268L48.5978 29.0508Z" fill="#7D48E8"/>
</g>
<defs>
<clipPath id="clip0_118_17254">
<rect width="183.994" height="50" fill="white" transform="translate(34.0032 15)"/>
</clipPath>
</defs>
</svg>
