<svg width="252" height="80" viewBox="0 0 252 80" fill="none" xmlns="http://www.w3.org/2000/svg">
<g opacity="0.5" clip-path="url(#clip0_118_17255)">
<path d="M117.505 32.8018C121.478 32.8018 124.705 36.0287 124.705 40.0018C124.705 43.9749 121.478 47.2018 117.505 47.2018C113.532 47.2018 110.305 43.9749 110.305 40.0018C110.305 36.0287 113.532 32.8018 117.505 32.8018ZM117.505 30.1836C112.085 30.1836 107.687 34.5821 107.687 40.0018C107.687 45.4214 112.085 49.82 117.505 49.82C122.924 49.82 127.323 45.4214 127.323 40.0018C127.323 34.5821 122.924 30.1836 117.505 30.1836Z" fill="#7D48E8"/>
<path d="M188.857 32.8018C189.577 32.8018 190.166 32.2127 190.166 31.4927V30.1836H177.075V49.82H188.857C189.577 49.82 190.166 49.2309 190.166 48.5109V47.2018H179.693V41.3109H188.857V38.6927H179.693V32.8018H188.857Z" fill="#7D48E8"/>
<path d="M153.505 30.1836H145.65V32.8018H150.887V49.82H152.196C152.916 49.82 153.505 49.2309 153.505 48.5109V32.8018H157.432C158.152 32.8018 158.741 32.2127 158.741 31.4927V30.1836H153.505Z" fill="#7D48E8"/>
<path d="M98.523 30.1836H91.9775V49.82H93.2866C94.0066 49.82 94.5957 49.2309 94.5957 48.5109V43.2745H98.523C102.136 43.2745 105.068 40.3421 105.068 36.729C105.068 33.116 102.136 30.1836 98.523 30.1836ZM98.523 40.6563H94.5957V32.8018H98.523C100.69 32.8018 102.45 34.5625 102.45 36.729C102.45 38.8956 100.69 40.6563 98.523 40.6563Z" fill="#7D48E8"/>
<path d="M143.031 36.729C143.031 33.116 140.099 30.1836 136.486 30.1836H129.94V49.82H131.25C131.97 49.82 132.559 49.2309 132.559 48.5109V43.2745H136.231L140.007 49.82H143.031L138.967 42.7836C141.349 41.8083 143.031 39.465 143.031 36.729ZM132.559 32.8018H136.486C138.652 32.8018 140.413 34.5625 140.413 36.729C140.413 38.8956 138.652 40.6563 136.486 40.6563H132.559V32.8018Z" fill="#7D48E8"/>
<path d="M171.433 49.82H174.457L167.794 38.2869L172.474 30.1836H169.45L163.978 39.6549V30.1836H161.359V49.82H162.668C163.388 49.82 163.978 49.2309 163.978 48.5109V44.8912L166.282 40.8985L171.433 49.8134V49.82Z" fill="#7D48E8"/>
<path d="M205.876 30.1836H202.852L199.331 36.284L195.809 30.1836H192.785L198.022 39.2556V49.82H199.331C200.051 49.82 200.64 49.2309 200.64 48.5109V39.2556L205.876 30.1836Z" fill="#7D48E8"/>
<path d="M61.4992 28.5535C56.6818 30.6677 53.6512 35.8386 55.4119 40.9702C56.4789 44.0728 58.6258 46.2917 61.8199 47.4241C67.3967 49.4008 73.209 45.0546 72.561 39.3993C72.2796 36.9972 71.0621 35.171 68.5879 34.4052C66.7487 33.8423 64.9814 34.1041 63.5349 35.4459C62.3174 36.5782 61.8461 37.979 62.337 39.6088C62.6054 40.5055 63.2534 41.0619 64.137 41.3237C64.9094 41.5593 65.5116 41.219 65.9763 40.5775C65.8847 40.4204 65.7996 40.2502 65.6883 40.1062C65.0861 39.3273 65.5705 38.195 66.0941 37.7237C66.801 37.0822 67.9465 37.0233 68.7058 37.5535C69.9232 38.411 70.4861 40.6953 69.8185 42.1353C68.7058 44.5375 65.8454 45.9317 63.2272 45.251C59.0905 44.1775 57.0483 40.0866 58.3836 36.1397C60.1574 30.8903 66.1269 28.5928 71.2127 31.1128C75.3232 33.1484 76.8483 36.6961 76.6912 40.931C76.4229 47.8953 69.3996 53.0597 62.3501 51.7179C55.5167 50.4153 50.4374 43.8699 50.8039 37.6844C50.9349 35.4001 51.4519 33.2597 52.617 31.2961C55.6476 26.1841 60.3865 23.7819 66.3101 23.3892C67.8679 23.2844 69.4454 23.3695 70.9312 23.3695C70.8527 23.3368 70.6629 23.2386 70.473 23.1732C67.5734 22.0932 64.5821 21.7463 61.5189 22.1848C59.6207 22.4204 57.8599 22.9375 56.2694 23.6641C56.2432 23.6641 56.2039 23.6772 56.1647 23.6968C55.4512 24.0044 55.3269 23.3041 55.0716 23.0881C54.8229 22.8852 54.8556 23.1404 54.8556 23.1404C55.0716 24.1681 54.5283 24.5804 54.4563 24.6328C54.0047 24.9143 53.5727 25.2153 53.1538 25.5361C53.1407 25.5361 53.1276 25.5361 53.121 25.5492C52.1327 26.0008 51.7203 25.235 51.2687 25.0059C50.7843 24.7637 50.9676 25.163 50.9676 25.163C51.5632 26.3477 51.0461 27.3623 50.9479 27.5259C50.529 27.9775 50.1363 28.4553 49.7632 28.9528C49.7239 28.979 49.6847 28.9986 49.6389 29.0379C48.6701 29.915 47.9109 29.2212 47.3152 29.0903C46.6541 28.9463 47.0272 29.3783 47.0272 29.3783C48.2512 30.635 47.865 32.1404 47.865 32.1404C46.3007 35.5441 45.7378 39.4779 46.3923 43.4248C48.5458 56.4044 64.5101 62.5375 74.9698 54.1724C78.3669 51.4561 80.7232 46.2262 80.9719 41.8997C81.1487 38.8233 80.1996 36.035 78.4454 33.515C74.7276 28.1543 67.2985 26.0073 61.4927 28.5535H61.4992Z" fill="#7D48E8"/>
</g>
<defs>
<clipPath id="clip0_118_17255">
<rect width="159.752" height="50" fill="white" transform="translate(46.124 15)"/>
</clipPath>
</defs>
</svg>
