<svg width="115" height="37" viewBox="0 0 115 37" fill="none" xmlns="http://www.w3.org/2000/svg">
<g opacity="0.5" clip-path="url(#clip0_810_59001)">
<path d="M53.2297 15.4762C55.0282 15.4762 56.489 16.937 56.489 18.7355C56.489 20.5341 55.0282 21.9948 53.2297 21.9948C51.4311 21.9948 49.9704 20.5341 49.9704 18.7355C49.9704 16.937 51.4311 15.4762 53.2297 15.4762ZM53.2297 14.291C50.7763 14.291 48.7852 16.2822 48.7852 18.7355C48.7852 21.1889 50.7763 23.18 53.2297 23.18C55.683 23.18 57.6742 21.1889 57.6742 18.7355C57.6742 16.2822 55.683 14.291 53.2297 14.291Z" fill="#7D48E8"/>
<path d="M85.5297 15.4762C85.8556 15.4762 86.1223 15.2095 86.1223 14.8836V14.291H80.1963V23.18H85.5297C85.8556 23.18 86.1223 22.9134 86.1223 22.5874V21.9948H81.3815V19.3281H85.5297V18.1429H81.3815V15.4762H85.5297Z" fill="#7D48E8"/>
<path d="M69.5263 14.291H65.9707V15.4762H68.3411V23.18H68.9337C69.2596 23.18 69.5263 22.9134 69.5263 22.5874V15.4762H71.3041C71.63 15.4762 71.8967 15.2095 71.8967 14.8836V14.291H69.5263Z" fill="#7D48E8"/>
<path d="M44.6371 14.291H41.6741V23.18H42.2667C42.5926 23.18 42.8593 22.9134 42.8593 22.5874V20.217H44.6371C46.2727 20.217 47.6001 18.8896 47.6001 17.254C47.6001 15.6184 46.2727 14.291 44.6371 14.291ZM44.6371 19.0318H42.8593V15.4762H44.6371C45.6178 15.4762 46.4149 16.2733 46.4149 17.254C46.4149 18.2348 45.6178 19.0318 44.6371 19.0318Z" fill="#7D48E8"/>
<path d="M64.7851 17.254C64.7851 15.6184 63.4577 14.291 61.8221 14.291H58.8591V23.18H59.4517C59.7777 23.18 60.0443 22.9134 60.0443 22.5874V20.217H61.7066L63.4162 23.18H64.7851L62.9451 19.9948C64.0236 19.5533 64.7851 18.4926 64.7851 17.254ZM60.0443 15.4762H61.8221C62.8029 15.4762 63.5999 16.2733 63.5999 17.254C63.5999 18.2348 62.8029 19.0318 61.8221 19.0318H60.0443V15.4762Z" fill="#7D48E8"/>
<path d="M77.6421 23.18H79.011L75.9947 17.9592L78.1132 14.291H76.7443L74.2672 18.5785V14.291H73.082V23.18H73.6746C74.0006 23.18 74.2672 22.9134 74.2672 22.5874V20.9489L75.3102 19.1415L77.6421 23.1771V23.18Z" fill="#7D48E8"/>
<path d="M93.2339 14.291H91.865L90.2709 17.0525L88.6768 14.291H87.3079L89.6783 18.3977V23.18H90.2709C90.5968 23.18 90.8635 22.9134 90.8635 22.5874V18.3977L93.2339 14.291Z" fill="#7D48E8"/>
<path d="M27.8773 13.5545C25.6965 14.5116 24.3247 16.8524 25.1217 19.1754C25.6047 20.5798 26.5765 21.5843 28.0225 22.0969C30.547 22.9917 33.1781 21.0243 32.8848 18.4642C32.7574 17.3768 32.2062 16.5501 31.0862 16.2035C30.2536 15.9487 29.4536 16.0672 28.7988 16.6746C28.2477 17.1872 28.0343 17.8213 28.2566 18.5591C28.378 18.965 28.6714 19.2168 29.0714 19.3354C29.421 19.442 29.6936 19.288 29.904 18.9976C29.8625 18.9265 29.824 18.8494 29.7736 18.7842C29.501 18.4316 29.7203 17.919 29.9573 17.7057C30.2773 17.4153 30.7959 17.3887 31.1396 17.6287C31.6907 18.0168 31.9455 19.0509 31.6433 19.7028C31.1396 20.7902 29.8447 21.4213 28.6595 21.1132C26.7869 20.6272 25.8625 18.7754 26.4669 16.9887C27.2699 14.6123 29.9721 13.5723 32.2744 14.7131C34.1352 15.6346 34.8255 17.2405 34.7544 19.1576C34.6329 22.3102 31.4536 24.648 28.2625 24.0406C25.1691 23.451 22.8698 20.488 23.0357 17.6879C23.095 16.6538 23.3291 15.6849 23.8565 14.796C25.2284 12.4819 27.3736 11.3945 30.0551 11.2167C30.7603 11.1693 31.4744 11.2078 32.147 11.2078C32.1114 11.193 32.0255 11.1486 31.9396 11.119C30.627 10.6301 29.2729 10.473 27.8862 10.6715C27.0269 10.7782 26.2299 11.0123 25.5099 11.3412C25.498 11.3412 25.4802 11.3471 25.4624 11.356C25.1395 11.4953 25.0832 11.1782 24.9676 11.0804C24.855 10.9886 24.8698 11.1041 24.8698 11.1041C24.9676 11.5693 24.7217 11.756 24.6891 11.7797C24.4847 11.9071 24.2891 12.0434 24.0995 12.1886C24.0935 12.1886 24.0876 12.1886 24.0847 12.1945C23.6372 12.399 23.4506 12.0523 23.2461 11.9486C23.0269 11.839 23.1098 12.0197 23.1098 12.0197C23.3795 12.556 23.1454 13.0153 23.1009 13.0894C22.9113 13.2938 22.7335 13.5101 22.5646 13.7353C22.5469 13.7471 22.5291 13.756 22.5083 13.7738C22.0698 14.1709 21.7261 13.8568 21.4565 13.7975C21.1572 13.7323 21.3261 13.9279 21.3261 13.9279C21.8802 14.4968 21.7054 15.1783 21.7054 15.1783C20.9972 16.719 20.7424 18.4998 21.0387 20.2865C22.0135 26.1621 29.2403 28.9385 33.9752 25.1517C35.513 23.9221 36.5796 21.5547 36.6922 19.5961C36.7722 18.2035 36.3426 16.9413 35.5485 15.8005C33.8655 13.3738 30.5025 12.4019 27.8743 13.5545H27.8773Z" fill="#7D48E8"/>
</g>
<defs>
<clipPath id="clip0_810_59001">
<rect width="72.3167" height="22.6341" fill="white" transform="translate(20.9172 7.41992)"/>
</clipPath>
</defs>
</svg>
