<svg width="252" height="80" viewBox="0 0 252 80" fill="none" xmlns="http://www.w3.org/2000/svg">
<g opacity="0.5" clip-path="url(#clip0_118_17253)">
<path d="M61.8272 47.6834L61.1551 47.6114V46.7665C61.1551 46.488 60.9295 46.2624 60.6511 46.2624C60.3726 46.2624 60.147 46.488 60.147 46.7665V47.8946L59.4701 48.8067C59.3069 49.0276 59.3501 49.3444 59.5757 49.5076C59.6669 49.5749 59.7725 49.6085 59.8733 49.6085C60.027 49.6085 60.1806 49.5364 60.2766 49.4068L60.8815 48.5907L61.7168 48.6771H61.7696C62.024 48.6771 62.2401 48.4851 62.2689 48.2259C62.2977 47.9522 62.096 47.7026 61.8224 47.6738L61.8272 47.6834Z" fill="#7D48E8"/>
<path fill-rule="evenodd" clip-rule="evenodd" d="M55.9035 42.1243C56.3932 41.5626 57.0076 41.2746 57.5837 41.337H57.5885C58.0494 41.385 58.4382 41.6538 58.6783 42.0907C59.1727 42.9884 58.9135 44.4334 58.0878 45.3743C57.6365 45.888 57.0892 46.1712 56.5612 46.1712C56.5132 46.1712 56.4604 46.1664 56.4076 46.1616C55.9467 46.1136 55.5578 45.8448 55.3178 45.4079C54.8185 44.5102 55.0778 43.0652 55.9035 42.1243ZM56.5132 45.1679C56.7484 45.1919 57.0652 45.0191 57.3293 44.7166C57.8669 44.1021 58.083 43.0988 57.7949 42.5755C57.7133 42.4267 57.6125 42.3499 57.4781 42.3355H57.4301C57.1997 42.3355 56.9116 42.5035 56.662 42.7868C56.1243 43.4013 55.9083 44.4046 56.1963 44.9279C56.2779 45.0767 56.3787 45.1535 56.5132 45.1679Z" fill="#7D48E8"/>
<path fill-rule="evenodd" clip-rule="evenodd" d="M63.0519 38.1685C62.4758 38.1061 61.8661 38.3942 61.3716 38.9558C60.5459 39.8968 60.2867 41.3417 60.7812 42.2395C61.0212 42.6763 61.41 42.9452 61.8709 42.9932C61.9237 42.998 61.9765 43.0028 62.0245 43.0028C62.5526 43.0028 63.0999 42.7195 63.5511 42.2059C64.3768 41.2649 64.6361 39.8199 64.1368 38.9222C63.8968 38.4854 63.5079 38.2165 63.0471 38.1685H63.0519ZM62.7974 41.5434C62.5334 41.8458 62.2166 42.0186 61.9813 41.9946C61.8469 41.9802 61.7461 41.9034 61.6645 41.7546C61.3764 41.2313 61.5925 40.228 62.1301 39.6135C62.3798 39.3303 62.6678 39.1623 62.8982 39.1623H62.9463C63.0807 39.1767 63.1815 39.2535 63.2631 39.4023C63.5511 39.9256 63.3351 40.9289 62.7974 41.5434Z" fill="#7D48E8"/>
<path fill-rule="evenodd" clip-rule="evenodd" d="M68.0587 32.643C68.0059 31.9805 67.7754 31.3468 67.4058 30.8092C67.3674 30.7372 67.3242 30.6652 67.2714 30.6027L63.6949 26.4694C63.5461 26.2966 63.3156 26.2102 63.0852 26.2438C62.8596 26.2774 62.6627 26.4262 62.5715 26.6374L62.2547 27.3671L53.7336 22.4561C53.3399 22.2304 52.9079 22.0864 52.471 22.0288C52.183 21.9904 51.8901 21.9904 51.6021 22.0288C51.1604 22.0864 50.7332 22.2256 50.3395 22.4561L37.8386 29.6666L37.7522 29.7242L37.6322 29.7962C36.6241 30.3771 36 31.4621 36 32.6238V47.3666C36 48.5283 36.6241 49.6133 37.6322 50.1942L37.6514 50.2038L37.6946 50.2326L50.1955 57.4479C50.1955 57.4479 50.2291 57.4623 50.2435 57.4719L50.3971 57.5631C50.9012 57.856 51.4677 58 52.0293 58C52.591 58 53.1575 57.856 53.6616 57.5631L53.8152 57.4767L53.8728 57.4479L66.3688 50.2326C66.3688 50.2326 66.4024 50.2086 66.4216 50.199L66.4361 50.1894C67.4442 49.6085 68.0683 48.5235 68.0683 47.3618V32.859C68.0683 32.7822 68.0635 32.7102 68.0539 32.6334L68.0587 32.643ZM38.4819 30.8524L51.0308 23.6082C51.2612 23.4738 51.5157 23.3922 51.7749 23.3586C51.8613 23.349 51.9477 23.3442 52.0341 23.3442C52.1157 23.3442 52.1974 23.349 52.279 23.3586H52.2934C52.5526 23.3922 52.807 23.4738 53.0375 23.6082L61.717 28.6201L59.3407 34.112L56.3835 30.6988C56.2347 30.5259 56.0043 30.4395 55.7738 30.4731C55.5482 30.5067 55.3514 30.6556 55.2602 30.8668L51.7893 38.8838C51.5157 38.8502 51.2468 38.7686 51.002 38.6246L38.5107 31.4093C38.3619 31.3228 38.3427 31.1788 38.3427 31.1212C38.3427 31.0684 38.3619 30.9436 38.4771 30.8572L38.4819 30.8524ZM66.7337 47.309C66.7337 48.0147 66.3544 48.6724 65.7544 49.0468L53.1863 56.3054C53.0471 56.3726 52.9223 56.3246 52.8742 56.2958C52.8262 56.267 52.7062 56.1806 52.7062 56.0077V41.577C52.7062 40.8521 53.0903 40.18 53.7144 39.8104L60.056 36.1475H60.0608L66.2392 32.5806C66.2968 32.5518 66.3496 32.5374 66.3976 32.5374C66.4745 32.5374 66.5369 32.5662 66.5657 32.5854C66.6089 32.6094 66.6905 32.6766 66.7193 32.8014C66.7193 32.8254 66.7217 32.8494 66.7241 32.8734C66.7265 32.8974 66.7289 32.9215 66.7289 32.9455V47.3186L66.7337 47.309Z" fill="#7D48E8"/>
<path d="M160.813 32.9781C160.263 32.9781 159.802 32.8067 159.43 32.464C159.073 32.1064 158.894 31.6668 158.894 31.1453C158.894 30.6238 159.073 30.1916 159.43 29.8489C159.802 29.4913 160.263 29.3125 160.813 29.3125C161.364 29.3125 161.817 29.4913 162.174 29.8489C162.546 30.1916 162.732 30.6238 162.732 31.1453C162.732 31.6668 162.546 32.1064 162.174 32.464C161.817 32.8067 161.364 32.9781 160.813 32.9781Z" fill="#7D48E8"/>
<path d="M162.353 34.4532V46.8357H159.229V34.4532H162.353Z" fill="#7D48E8"/>
<path fill-rule="evenodd" clip-rule="evenodd" d="M206.716 41.5832C206.775 41.2256 206.805 40.8232 206.805 40.3762C206.805 39.1693 206.545 38.1039 206.024 37.18C205.518 36.2413 204.797 35.5186 203.86 35.012C202.937 34.5054 201.889 34.2521 200.713 34.2521C199.494 34.2521 198.415 34.5128 197.478 35.0343C196.541 35.5559 195.812 36.3009 195.291 37.2694C194.771 38.238 194.51 39.363 194.51 40.6444C194.51 41.911 194.771 43.0285 195.291 43.9971C195.827 44.9656 196.563 45.7181 197.5 46.2545C198.452 46.776 199.523 47.0368 200.713 47.0368C202.186 47.0368 203.428 46.6568 204.44 45.8969C205.451 45.1221 206.136 44.1386 206.493 42.9466H203.123C202.632 43.9449 201.807 44.4441 200.646 44.4441C199.843 44.4441 199.166 44.1908 198.616 43.6842C198.066 43.1775 197.753 42.4772 197.679 41.5832H206.716ZM202.699 37.56C203.265 38.0368 203.555 38.6775 203.57 39.4822H197.701C197.82 38.6477 198.14 37.9996 198.661 37.5376C199.196 37.0608 199.851 36.8224 200.624 36.8224C201.442 36.8224 202.134 37.0683 202.699 37.56Z" fill="#7D48E8"/>
<path d="M213.771 34.8332C213.132 35.2057 212.611 35.7198 212.209 36.3754V34.4532H209.086V46.8356H212.209V40.6668C212.209 39.5194 212.455 38.7148 212.946 38.2529C213.452 37.791 214.195 37.56 215.177 37.56H216.003V34.2744C215.17 34.2744 214.426 34.4607 213.771 34.8332Z" fill="#7D48E8"/>
<path fill-rule="evenodd" clip-rule="evenodd" d="M185.033 34.2521C185.955 34.2521 186.766 34.4384 187.465 34.8109C188.164 35.1685 188.715 35.6379 189.117 36.219V34.4533H192.263V46.9251C192.263 48.0724 192.032 49.0931 191.571 49.9872C191.11 50.8961 190.418 51.6113 189.496 52.1329C188.574 52.6693 187.458 52.9375 186.149 52.9375C184.394 52.9375 182.951 52.5277 181.82 51.7082C180.704 50.8887 180.072 49.7711 179.923 48.3556H183.025C183.189 48.9218 183.538 49.3688 184.074 49.6966C184.624 50.0393 185.286 50.2107 186.06 50.2107C186.967 50.2107 187.703 49.935 188.269 49.3837C188.834 48.8473 189.117 48.0277 189.117 46.9251V45.0029C188.715 45.584 188.157 46.0683 187.443 46.4557C186.744 46.8431 185.941 47.0368 185.033 47.0368C183.992 47.0368 183.04 46.7686 182.177 46.2322C181.314 45.6958 180.63 44.9433 180.124 43.9748C179.633 42.9913 179.388 41.8663 179.388 40.5998C179.388 39.3481 179.633 38.238 180.124 37.2695C180.63 36.3009 181.307 35.5559 182.155 35.0344C183.018 34.5129 183.977 34.2521 185.033 34.2521ZM189.117 40.6445C189.117 39.8845 188.968 39.2364 188.67 38.6999C188.373 38.1486 187.971 37.7314 187.465 37.4483C186.96 37.1503 186.417 37.0013 185.836 37.0013C185.256 37.0013 184.721 37.1428 184.23 37.4259C183.739 37.709 183.337 38.1263 183.025 38.6776C182.727 39.214 182.579 39.8547 182.579 40.5998C182.579 41.3448 182.727 42.0004 183.025 42.5667C183.337 43.118 183.739 43.5426 184.23 43.8407C184.736 44.1387 185.271 44.2877 185.836 44.2877C186.417 44.2877 186.96 44.1461 187.465 43.863C187.971 43.565 188.373 43.1478 188.67 42.6114C188.968 42.06 189.117 41.4044 189.117 40.6445Z" fill="#7D48E8"/>
<path d="M175.859 35.6826C174.952 34.7438 173.762 34.2744 172.289 34.2744C171.516 34.2744 170.802 34.4309 170.147 34.7438C169.507 35.0418 168.979 35.459 168.563 35.9955V34.4533H165.439V46.8357H168.563V39.9963C168.563 39.0128 168.808 38.2604 169.299 37.7388C169.805 37.2024 170.489 36.9342 171.352 36.9342C172.2 36.9342 172.869 37.2024 173.36 37.7388C173.851 38.2604 174.096 39.0128 174.096 39.9963V46.8357H177.22V39.5716C177.22 37.9027 176.767 36.6064 175.859 35.6826Z" fill="#7D48E8"/>
<path fill-rule="evenodd" clip-rule="evenodd" d="M144.04 37.2694C143.549 38.238 143.304 39.3481 143.304 40.5997C143.304 41.8663 143.549 42.9913 144.04 43.9747C144.546 44.9432 145.23 45.6957 146.093 46.2322C146.956 46.7686 147.908 47.0368 148.949 47.0368C149.871 47.0368 150.682 46.8505 151.381 46.478C152.08 46.1055 152.623 45.6138 153.01 45.0028V46.8356H156.178V30.2959H153.01V36.1742C152.578 35.5931 151.998 35.1312 151.269 34.7885C150.541 34.4308 149.774 34.252 148.971 34.252C147.915 34.252 146.956 34.5128 146.093 35.0343C145.23 35.5558 144.546 36.3009 144.04 37.2694ZM152.586 38.6999C152.883 39.2363 153.032 39.8845 153.032 40.6444C153.032 41.4043 152.883 42.06 152.586 42.6113C152.288 43.1477 151.887 43.5649 151.381 43.8629C150.875 44.1461 150.332 44.2876 149.752 44.2876C149.187 44.2876 148.651 44.1386 148.146 43.8406C147.655 43.5426 147.253 43.1179 146.941 42.5666C146.643 42.0004 146.494 41.3447 146.494 40.5997C146.494 39.8547 146.643 39.2139 146.941 38.6775C147.253 38.1262 147.655 37.709 148.146 37.4259C148.636 37.1428 149.172 37.0012 149.752 37.0012C150.332 37.0012 150.875 37.1502 151.381 37.4482C151.887 37.7313 152.288 38.1486 152.586 38.6999Z" fill="#7D48E8"/>
<path fill-rule="evenodd" clip-rule="evenodd" d="M135.367 47.0369C134.177 47.0369 133.106 46.7761 132.154 46.2546C131.202 45.7182 130.451 44.9657 129.9 43.9971C129.365 43.0286 129.097 41.911 129.097 40.6445C129.097 39.3779 129.372 38.2604 129.923 37.2918C130.488 36.3233 131.254 35.5783 132.221 35.0567C133.188 34.5203 134.266 34.2521 135.456 34.2521C136.646 34.2521 137.725 34.5203 138.692 35.0567C139.659 35.5783 140.417 36.3233 140.968 37.2918C141.533 38.2604 141.816 39.3779 141.816 40.6445C141.816 41.911 141.525 43.0286 140.945 43.9971C140.38 44.9657 139.607 45.7182 138.625 46.2546C137.658 46.7761 136.572 47.0369 135.367 47.0369ZM135.367 44.31C135.932 44.31 136.46 44.1759 136.951 43.9077C137.457 43.6246 137.859 43.2074 138.156 42.6561C138.454 42.1048 138.602 41.4342 138.602 40.6445C138.602 39.4673 138.29 38.5659 137.665 37.94C137.055 37.2993 136.304 36.9789 135.412 36.9789C134.519 36.9789 133.768 37.2993 133.158 37.94C132.563 38.5659 132.265 39.4673 132.265 40.6445C132.265 41.8216 132.556 42.7306 133.136 43.3713C133.731 43.9971 134.474 44.31 135.367 44.31Z" fill="#7D48E8"/>
<path d="M125.542 34.8332C124.902 35.2057 124.382 35.7198 123.98 36.3754V34.4533H120.856V46.8357H123.98V40.6668C123.98 39.5195 124.226 38.7148 124.717 38.2529C125.222 37.791 125.966 37.56 126.948 37.56H127.773V34.2744C126.94 34.2744 126.197 34.4607 125.542 34.8332Z" fill="#7D48E8"/>
<path d="M113.065 34.2744C114.003 34.2744 114.836 34.483 115.565 34.9002C116.293 35.3025 116.859 35.906 117.26 36.7106C117.677 37.5004 117.885 38.454 117.885 39.5716V46.8356H114.761V39.9962C114.761 39.0128 114.516 38.2603 114.025 37.7388C113.534 37.2024 112.865 36.9341 112.017 36.9341C111.154 36.9341 110.47 37.2024 109.964 37.7388C109.473 38.2603 109.228 39.0128 109.228 39.9962V46.8356H106.104V30.2959H109.228V35.9954C109.629 35.459 110.165 35.0418 110.834 34.7438C111.504 34.4308 112.247 34.2744 113.065 34.2744Z" fill="#7D48E8"/>
<path d="M92.6591 37.2918C92.1385 38.2455 91.8782 39.363 91.8782 40.6445C91.8782 41.9259 92.1385 43.0509 92.6591 44.0195C93.1798 44.9731 93.9012 45.7181 94.8235 46.2546C95.7458 46.7761 96.802 47.0368 97.992 47.0368C99.5093 47.0368 100.774 46.642 101.785 45.8522C102.797 45.0625 103.474 43.9971 103.816 42.6561H100.446C100.06 43.7885 99.2341 44.3547 97.9697 44.3547C97.0772 44.3547 96.3706 44.0344 95.8499 43.3936C95.3293 42.738 95.069 41.8216 95.069 40.6445C95.069 39.4524 95.3293 38.536 95.8499 37.8953C96.3706 37.2397 97.0772 36.9119 97.9697 36.9119C98.5945 36.9119 99.1151 37.0683 99.5316 37.3812C99.963 37.6792 100.268 38.0965 100.446 38.6329H103.816C103.474 37.2471 102.797 36.1743 101.785 35.4143C100.789 34.6395 99.5242 34.2521 97.992 34.2521C96.802 34.2521 95.7458 34.5203 94.8235 35.0567C93.9012 35.5782 93.1798 36.3233 92.6591 37.2918Z" fill="#7D48E8"/>
<path d="M84.4617 46.9921C83.3758 46.9921 82.394 46.8059 81.5163 46.4334C80.6535 46.0609 79.9693 45.5244 79.4635 44.8241C78.9577 44.1238 78.6974 43.2968 78.6825 42.3431H82.0295C82.0741 42.9839 82.2973 43.4905 82.6989 43.863C83.1154 44.2355 83.6807 44.4218 84.3947 44.4218C85.1236 44.4218 85.6963 44.2504 86.1128 43.9077C86.5294 43.5501 86.7376 43.0882 86.7376 42.522C86.7376 42.06 86.5963 41.6801 86.3137 41.3821C86.031 41.084 85.674 40.8531 85.2426 40.6892C84.8261 40.5104 84.246 40.3167 83.5022 40.1081C82.4907 39.81 81.6651 39.5195 81.0254 39.2364C80.4007 38.9384 79.8577 38.4988 79.3965 37.9177C78.9503 37.3216 78.7271 36.5319 78.7271 35.5485C78.7271 34.6246 78.9577 33.82 79.4189 33.1346C79.88 32.4491 80.5271 31.9276 81.3601 31.57C82.1931 31.1975 83.1452 31.0112 84.2162 31.0112C85.8228 31.0112 87.1244 31.4061 88.121 32.1958C89.1326 32.9706 89.6904 34.0584 89.7945 35.4591H86.3583C86.3285 34.9226 86.098 34.4831 85.6666 34.1403C85.2501 33.7827 84.6922 33.6039 83.9931 33.6039C83.3832 33.6039 82.8923 33.7604 82.5204 34.0733C82.1634 34.3862 81.9849 34.8407 81.9849 35.4367C81.9849 35.8539 82.1188 36.2041 82.3865 36.4872C82.6692 36.7554 83.0113 36.9789 83.4129 37.1577C83.8295 37.3216 84.4096 37.5153 85.1534 37.7389C86.1649 38.0369 86.9905 38.3349 87.6301 38.6329C88.2698 38.9309 88.8202 39.3779 89.2813 39.9739C89.7425 40.57 89.973 41.3523 89.973 42.3208C89.973 43.1552 89.7574 43.9301 89.326 44.6453C88.8946 45.3605 88.2624 45.9342 87.4293 46.3663C86.5963 46.7835 85.6071 46.9921 84.4617 46.9921Z" fill="#7D48E8"/>
<path d="M132.457 32.6875C131.973 32.6875 131.568 32.5297 131.241 32.2142C130.927 31.8849 130.77 31.4802 130.77 31C130.77 30.5198 130.927 30.122 131.241 29.8064C131.568 29.4771 131.973 29.3125 132.457 29.3125C132.941 29.3125 133.34 29.4771 133.654 29.8064C133.981 30.122 134.145 30.5198 134.145 31C134.145 31.4802 133.981 31.8849 133.654 32.2142C133.34 32.5297 132.941 32.6875 132.457 32.6875Z" fill="#7D48E8"/>
<path d="M137.316 32.2142C137.643 32.5297 138.048 32.6875 138.532 32.6875C139.016 32.6875 139.415 32.5297 139.729 32.2142C140.056 31.8849 140.22 31.4802 140.22 31C140.22 30.5198 140.056 30.122 139.729 29.8064C139.415 29.4771 139.016 29.3125 138.532 29.3125C138.048 29.3125 137.643 29.4771 137.316 29.8064C137.002 30.122 136.845 30.5198 136.845 31C136.845 31.4802 137.002 31.8849 137.316 32.2142Z" fill="#7D48E8"/>
</g>
<defs>
<clipPath id="clip0_118_17253">
<rect width="180" height="50" fill="white" transform="translate(36 15)"/>
</clipPath>
</defs>
</svg>
