<svg width="116" height="37" viewBox="0 0 116 37" fill="none" xmlns="http://www.w3.org/2000/svg">
<g opacity="0.5" clip-path="url(#clip0_810_59000)">
<path d="M28.9503 22.2143L28.646 22.1817V21.7992C28.646 21.6732 28.5439 21.571 28.4179 21.571C28.2918 21.571 28.1897 21.6732 28.1897 21.7992V22.3099L27.8833 22.7228C27.8094 22.8228 27.8289 22.9662 27.9311 23.0401C27.9724 23.0705 28.0202 23.0857 28.0658 23.0857C28.1353 23.0857 28.2049 23.0531 28.2483 22.9944L28.5222 22.625L28.9003 22.6641H28.9242C29.0394 22.6641 29.1372 22.5772 29.1502 22.4598C29.1632 22.336 29.072 22.223 28.9481 22.2099L28.9503 22.2143Z" fill="#7D48E8"/>
<path fill-rule="evenodd" clip-rule="evenodd" d="M26.2687 19.6978C26.4904 19.4435 26.7685 19.3131 27.0293 19.3414H27.0315C27.2401 19.3631 27.4161 19.4848 27.5248 19.6826C27.7486 20.0889 27.6313 20.7431 27.2575 21.169C27.0532 21.4015 26.8055 21.5297 26.5664 21.5297C26.5447 21.5297 26.5208 21.5276 26.4969 21.5254C26.2883 21.5037 26.1123 21.382 26.0036 21.1842C25.7776 20.7778 25.8949 20.1237 26.2687 19.6978ZM26.5447 21.0756C26.6512 21.0864 26.7946 21.0082 26.9141 20.8713C27.1575 20.5931 27.2553 20.1389 27.1249 19.9021C27.088 19.8347 27.0424 19.7999 26.9815 19.7934H26.9598C26.8555 19.7934 26.7251 19.8695 26.6121 19.9977C26.3687 20.2758 26.2709 20.73 26.4013 20.9669C26.4382 21.0343 26.4839 21.069 26.5447 21.0756Z" fill="#7D48E8"/>
<path fill-rule="evenodd" clip-rule="evenodd" d="M29.5047 17.9071C29.2439 17.8788 28.9679 18.0092 28.7441 18.2635C28.3703 18.6894 28.2529 19.3435 28.4768 19.7499C28.5854 19.9477 28.7614 20.0694 28.9701 20.0911C28.994 20.0933 29.0179 20.0954 29.0396 20.0954C29.2786 20.0954 29.5264 19.9672 29.7307 19.7347C30.1044 19.3088 30.2218 18.6546 29.9958 18.2483C29.8871 18.0505 29.7111 17.9288 29.5025 17.9071H29.5047ZM29.3895 19.4348C29.27 19.5717 29.1265 19.6499 29.02 19.6391C28.9592 19.6326 28.9136 19.5978 28.8766 19.5304C28.7462 19.2936 28.844 18.8394 29.0874 18.5612C29.2004 18.433 29.3308 18.3569 29.4351 18.3569H29.4568C29.5177 18.3634 29.5633 18.3982 29.6003 18.4656C29.7307 18.7025 29.6329 19.1566 29.3895 19.4348Z" fill="#7D48E8"/>
<path fill-rule="evenodd" clip-rule="evenodd" d="M31.7711 15.4058C31.7472 15.1059 31.6429 14.819 31.4756 14.5756C31.4582 14.543 31.4386 14.5104 31.4147 14.4822L29.7957 12.6111C29.7284 12.5329 29.6241 12.4938 29.5197 12.509C29.4176 12.5242 29.3285 12.5915 29.2872 12.6872L29.1438 13.0175L25.2864 10.7943C25.1082 10.6922 24.9127 10.627 24.7149 10.6009C24.5845 10.5835 24.4519 10.5835 24.3216 10.6009C24.1216 10.627 23.9282 10.69 23.75 10.7943L18.0911 14.0584L18.052 14.0845L17.9977 14.1171C17.5413 14.3801 17.2588 14.8712 17.2588 15.3971V22.0709C17.2588 22.5968 17.5413 23.0879 17.9977 23.3509L18.0064 23.3552L18.0259 23.3682L23.6848 26.6345C23.6848 26.6345 23.7 26.641 23.7066 26.6454L23.7761 26.6867C24.0043 26.8192 24.2607 26.8844 24.515 26.8844C24.7692 26.8844 25.0257 26.8192 25.2538 26.6867L25.3234 26.6475L25.3495 26.6345L31.0062 23.3682C31.0062 23.3682 31.0214 23.3574 31.0301 23.353L31.0366 23.3487C31.493 23.0857 31.7755 22.5946 31.7755 22.0687V15.5036C31.7755 15.4688 31.7733 15.4362 31.769 15.4014L31.7711 15.4058ZM18.3823 14.5952L24.0629 11.3159C24.1673 11.2551 24.2824 11.2181 24.3998 11.2029C24.4389 11.1985 24.478 11.1964 24.5171 11.1964C24.5541 11.1964 24.591 11.1985 24.628 11.2029H24.6345C24.7518 11.2181 24.867 11.2551 24.9713 11.3159L28.9004 13.5847L27.8247 16.0708L26.486 14.5257C26.4187 14.4474 26.3143 14.4083 26.21 14.4235C26.1079 14.4387 26.0188 14.5061 25.9775 14.6017L24.4063 18.2309C24.2824 18.2157 24.1607 18.1787 24.0499 18.1135L18.3954 14.8473C18.328 14.8082 18.3193 14.743 18.3193 14.7169C18.3193 14.693 18.328 14.6365 18.3801 14.5974L18.3823 14.5952ZM31.1713 22.0448C31.1713 22.3642 30.9997 22.662 30.728 22.8315L25.0387 26.1173C24.9757 26.1477 24.9192 26.126 24.8974 26.1129C24.8757 26.0999 24.8214 26.0608 24.8214 25.9825V19.45C24.8214 19.1219 24.9952 18.8176 25.2777 18.6503L28.1485 16.9922H28.1507L30.9475 15.3775C30.9736 15.3645 30.9975 15.358 31.0192 15.358C31.054 15.358 31.0822 15.371 31.0953 15.3797C31.1148 15.3906 31.1518 15.421 31.1648 15.4775C31.1648 15.4884 31.1659 15.4992 31.167 15.5101C31.1681 15.5209 31.1692 15.5318 31.1692 15.5427V22.0491L31.1713 22.0448Z" fill="#7D48E8"/>
<path d="M73.7594 15.5574C73.5102 15.5574 73.3015 15.4799 73.1331 15.3247C72.9715 15.1629 72.8907 14.9639 72.8907 14.7278C72.8907 14.4917 72.9715 14.2961 73.1331 14.1409C73.3015 13.9791 73.5102 13.8981 73.7594 13.8981C74.0085 13.8981 74.2139 13.9791 74.3755 14.1409C74.5439 14.2961 74.628 14.4917 74.628 14.7278C74.628 14.9639 74.5439 15.1629 74.3755 15.3247C74.2139 15.4799 74.0085 15.5574 73.7594 15.5574Z" fill="#7D48E8"/>
<path d="M74.4563 16.2252V21.8305H73.0422V16.2252H74.4563Z" fill="#7D48E8"/>
<path fill-rule="evenodd" clip-rule="evenodd" d="M94.5386 19.4528C94.5655 19.2909 94.579 19.1088 94.579 18.9065C94.579 18.3601 94.4611 17.8778 94.2254 17.4596C93.9965 17.0347 93.6699 16.7075 93.2457 16.4782C92.8282 16.2488 92.3534 16.1342 91.8214 16.1342C91.2693 16.1342 90.7811 16.2522 90.3568 16.4883C89.9326 16.7244 89.6026 17.0616 89.3669 17.5001C89.1313 17.9385 89.0134 18.4478 89.0134 19.0279C89.0134 19.6012 89.1313 20.1071 89.3669 20.5456C89.6094 20.984 89.9427 21.3246 90.3669 21.5675C90.7979 21.8035 91.2827 21.9216 91.8214 21.9216C92.4881 21.9216 93.0504 21.7496 93.5083 21.4056C93.9662 21.0548 94.2759 20.6096 94.4376 20.07H92.9123C92.6901 20.5219 92.3164 20.7479 91.7911 20.7479C91.4275 20.7479 91.1211 20.6332 90.872 20.4039C90.6228 20.1746 90.4814 19.8575 90.4477 19.4528H94.5386ZM92.7204 17.6316C92.9763 17.8475 93.1076 18.1375 93.1143 18.5017H90.4578C90.5117 18.124 90.6565 17.8306 90.8922 17.6215C91.1346 17.4056 91.4309 17.2977 91.781 17.2977C92.1514 17.2977 92.4645 17.409 92.7204 17.6316Z" fill="#7D48E8"/>
<path d="M97.7325 16.3972C97.443 16.5659 97.2073 16.7986 97.0255 17.0954V16.2252H95.6114V21.8305H97.0255V19.038C97.0255 18.5186 97.1366 18.1544 97.3588 17.9453C97.5878 17.7362 97.9244 17.6316 98.3689 17.6316H98.7426V16.1443C98.3655 16.1443 98.0288 16.2286 97.7325 16.3972Z" fill="#7D48E8"/>
<path fill-rule="evenodd" clip-rule="evenodd" d="M84.7233 16.1342C85.1408 16.1342 85.5078 16.2185 85.8243 16.3871C86.1408 16.549 86.3899 16.7615 86.5717 17.0246V16.2252H87.996V21.871C87.996 22.3904 87.8916 22.8524 87.6828 23.2572C87.4741 23.6686 87.161 23.9924 86.7435 24.2285C86.326 24.4713 85.8209 24.5927 85.2283 24.5927C84.4337 24.5927 83.7806 24.4072 83.2688 24.0362C82.7637 23.6652 82.4776 23.1593 82.4102 22.5185H83.8142C83.8883 22.7749 84.0465 22.9772 84.289 23.1256C84.5381 23.2808 84.8378 23.3583 85.1879 23.3583C85.5987 23.3583 85.932 23.2335 86.1879 22.984C86.4438 22.7411 86.5717 22.3702 86.5717 21.871V21.0009C86.3899 21.2639 86.1374 21.4832 85.8142 21.6585C85.4977 21.8339 85.1341 21.9216 84.7233 21.9216C84.2519 21.9216 83.821 21.8002 83.4304 21.5574C83.0398 21.3145 82.7301 20.9739 82.5011 20.5354C82.2789 20.0903 82.1678 19.581 82.1678 19.0077C82.1678 18.4411 82.2789 17.9385 82.5011 17.5001C82.7301 17.0617 83.0365 16.7244 83.4203 16.4883C83.8108 16.2522 84.2452 16.1342 84.7233 16.1342ZM86.5717 19.0279C86.5717 18.6839 86.5044 18.3905 86.3697 18.1476C86.235 17.8981 86.0532 17.7092 85.8243 17.581C85.5953 17.4461 85.3495 17.3787 85.0869 17.3787C84.8243 17.3787 84.5819 17.4428 84.3597 17.5709C84.1374 17.6991 83.9556 17.8879 83.8142 18.1375C83.6795 18.3803 83.6122 18.6704 83.6122 19.0077C83.6122 19.3449 83.6795 19.6417 83.8142 19.898C83.9556 20.1476 84.1374 20.3398 84.3597 20.4747C84.5886 20.6096 84.831 20.6771 85.0869 20.6771C85.3495 20.6771 85.5953 20.613 85.8243 20.4849C86.0532 20.35 86.235 20.1611 86.3697 19.9183C86.5044 19.6687 86.5717 19.3719 86.5717 19.0279Z" fill="#7D48E8"/>
<path d="M80.5704 16.7817C80.1596 16.3568 79.6209 16.1443 78.9543 16.1443C78.6041 16.1443 78.2809 16.2151 77.9846 16.3568C77.695 16.4917 77.456 16.6805 77.2674 16.9234V16.2252H75.8533V21.8305H77.2674V18.7345C77.2674 18.2893 77.3785 17.9486 77.6008 17.7126C77.8297 17.4697 78.1395 17.3483 78.53 17.3483C78.9139 17.3483 79.2169 17.4697 79.4391 17.7126C79.6613 17.9486 79.7724 18.2893 79.7724 18.7345V21.8305H81.1865V18.5422C81.1865 17.7868 80.9812 17.1999 80.5704 16.7817Z" fill="#7D48E8"/>
<path fill-rule="evenodd" clip-rule="evenodd" d="M66.1664 17.5001C65.9442 17.9385 65.8331 18.441 65.8331 19.0076C65.8331 19.581 65.9442 20.0902 66.1664 20.5354C66.3954 20.9739 66.7051 21.3145 67.0957 21.5573C67.4863 21.8002 67.9172 21.9216 68.3886 21.9216C68.8061 21.9216 69.1731 21.8373 69.4896 21.6686C69.8061 21.5 70.0519 21.2774 70.2269 21.0008V21.8305H71.6613V14.3433H70.2269V17.0043C70.0317 16.7412 69.769 16.5321 69.4391 16.377C69.1091 16.2151 68.7623 16.1342 68.3987 16.1342C67.9206 16.1342 67.4863 16.2522 67.0957 16.4883C66.7051 16.7244 66.3954 17.0616 66.1664 17.5001ZM70.035 18.1476C70.1697 18.3904 70.237 18.6839 70.237 19.0279C70.237 19.3719 70.1697 19.6687 70.035 19.9182C69.9004 20.1611 69.7185 20.3499 69.4896 20.4848C69.2606 20.613 69.0148 20.6771 68.7522 20.6771C68.4963 20.6771 68.2539 20.6096 68.025 20.4747C67.8028 20.3398 67.6209 20.1476 67.4795 19.898C67.3448 19.6417 67.2775 19.3449 67.2775 19.0076C67.2775 18.6704 67.3448 18.3803 67.4795 18.1375C67.6209 17.8879 67.8028 17.6991 68.025 17.5709C68.2472 17.4427 68.4896 17.3787 68.7522 17.3787C69.0148 17.3787 69.2606 17.4461 69.4896 17.581C69.7185 17.7092 69.9004 17.898 70.035 18.1476Z" fill="#7D48E8"/>
<path fill-rule="evenodd" clip-rule="evenodd" d="M62.2404 21.9216C61.7016 21.9216 61.2168 21.8036 60.7858 21.5675C60.3549 21.3247 60.0148 20.984 59.7657 20.5456C59.5232 20.1071 59.402 19.6012 59.402 19.0279C59.402 18.4546 59.5266 17.9487 59.7758 17.5102C60.0316 17.0718 60.3784 16.7345 60.8161 16.4984C61.2538 16.2556 61.742 16.1342 62.2808 16.1342C62.8195 16.1342 63.3077 16.2556 63.7454 16.4984C64.1831 16.7345 64.5265 17.0718 64.7757 17.5102C65.0315 17.9487 65.1595 18.4546 65.1595 19.0279C65.1595 19.6012 65.0282 20.1071 64.7656 20.5456C64.5097 20.984 64.1595 21.3247 63.7151 21.5675C63.2774 21.8036 62.7858 21.9216 62.2404 21.9216ZM62.2404 20.6872C62.4962 20.6872 62.7353 20.6265 62.9575 20.5051C63.1865 20.3769 63.3683 20.1881 63.503 19.9385C63.6376 19.6889 63.705 19.3854 63.705 19.0279C63.705 18.495 63.5636 18.0869 63.2807 17.8036C63.0046 17.5136 62.6646 17.3686 62.2606 17.3686C61.8565 17.3686 61.5165 17.5136 61.2404 17.8036C60.971 18.0869 60.8363 18.495 60.8363 19.0279C60.8363 19.5608 60.9677 19.9722 61.2303 20.2623C61.4996 20.5456 61.8363 20.6872 62.2404 20.6872Z" fill="#7D48E8"/>
<path d="M57.7928 16.3972C57.5032 16.5659 57.2676 16.7986 57.0858 17.0954V16.2252H55.6716V21.8305H57.0858V19.038C57.0858 18.5186 57.1969 18.1544 57.4191 17.9453C57.648 17.7362 57.9847 17.6316 58.4292 17.6316H58.8029V16.1443C58.4258 16.1443 58.0891 16.2286 57.7928 16.3972Z" fill="#7D48E8"/>
<path d="M52.1449 16.1443C52.5691 16.1443 52.9462 16.2387 53.2762 16.4276C53.6061 16.6097 53.862 16.8829 54.0438 17.2471C54.2324 17.6046 54.3266 18.0363 54.3266 18.5422V21.8305H52.9125V18.7344C52.9125 18.2893 52.8014 17.9486 52.5792 17.7125C52.357 17.4697 52.054 17.3483 51.6701 17.3483C51.2796 17.3483 50.9698 17.4697 50.7409 17.7125C50.5186 17.9486 50.4075 18.2893 50.4075 18.7344V21.8305H48.9934V14.3433H50.4075V16.9233C50.5893 16.6805 50.8318 16.4917 51.1348 16.3567C51.4378 16.2151 51.7745 16.1443 52.1449 16.1443Z" fill="#7D48E8"/>
<path d="M42.9073 17.5102C42.6716 17.9419 42.5538 18.4478 42.5538 19.0279C42.5538 19.608 42.6716 20.1172 42.9073 20.5557C43.143 20.9874 43.4696 21.3246 43.8871 21.5675C44.3046 21.8036 44.7827 21.9216 45.3214 21.9216C46.0083 21.9216 46.5806 21.7428 47.0385 21.3853C47.4964 21.0279 47.8028 20.5456 47.9577 19.9385H46.4325C46.2574 20.4511 45.8837 20.7075 45.3113 20.7075C44.9073 20.7075 44.5874 20.5624 44.3517 20.2724C44.116 19.9756 43.9982 19.5608 43.9982 19.0279C43.9982 18.4883 44.116 18.0734 44.3517 17.7834C44.5874 17.4866 44.9073 17.3382 45.3113 17.3382C45.5941 17.3382 45.8298 17.409 46.0184 17.5507C46.2136 17.6856 46.3517 17.8745 46.4325 18.1173H47.9577C47.8028 17.49 47.4964 17.0043 47.0385 16.6603C46.5874 16.3096 46.015 16.1342 45.3214 16.1342C44.7827 16.1342 44.3046 16.2556 43.8871 16.4984C43.4696 16.7345 43.143 17.0718 42.9073 17.5102Z" fill="#7D48E8"/>
<path d="M39.1965 21.9014C38.7049 21.9014 38.2605 21.817 37.8632 21.6484C37.4726 21.4798 37.1628 21.237 36.9339 20.9199C36.7049 20.6029 36.5871 20.2285 36.5804 19.7968H38.0955C38.1157 20.0869 38.2167 20.3162 38.3985 20.4849C38.5871 20.6535 38.8429 20.7378 39.1662 20.7378C39.4961 20.7378 39.7554 20.6602 39.9439 20.5051C40.1325 20.3432 40.2267 20.1341 40.2267 19.8778C40.2267 19.6687 40.1628 19.4967 40.0348 19.3618C39.9069 19.2269 39.7453 19.1223 39.55 19.0481C39.3614 18.9672 39.0988 18.8795 38.7621 18.7851C38.3042 18.6502 37.9305 18.5186 37.6409 18.3905C37.3581 18.2556 37.1123 18.0566 36.9036 17.7935C36.7016 17.5237 36.6006 17.1662 36.6006 16.721C36.6006 16.3028 36.7049 15.9386 36.9137 15.6283C37.1224 15.318 37.4154 15.0819 37.7925 14.92C38.1696 14.7514 38.6005 14.6671 39.0854 14.6671C39.8126 14.6671 40.4018 14.8458 40.853 15.2033C41.3109 15.5541 41.5634 16.0465 41.6106 16.6805H40.055C40.0416 16.4377 39.9372 16.2387 39.7419 16.0836C39.5534 15.9217 39.3008 15.8408 38.9844 15.8408C38.7083 15.8408 38.486 15.9116 38.3177 16.0532C38.1561 16.1949 38.0753 16.4006 38.0753 16.6704C38.0753 16.8593 38.1359 17.0178 38.2571 17.146C38.385 17.2674 38.5399 17.3686 38.7217 17.4495C38.9103 17.5237 39.1729 17.6114 39.5096 17.7126C39.9675 17.8475 40.3412 17.9824 40.6308 18.1173C40.9203 18.2522 41.1695 18.4545 41.3782 18.7244C41.587 18.9942 41.6914 19.3483 41.6914 19.7867C41.6914 20.1645 41.5937 20.5152 41.3984 20.839C41.2032 21.1628 40.917 21.4225 40.5399 21.6181C40.1628 21.8069 39.715 21.9014 39.1965 21.9014Z" fill="#7D48E8"/>
<path d="M60.9232 15.4259C60.7041 15.4259 60.5205 15.3545 60.3725 15.2117C60.2303 15.0626 60.1593 14.8794 60.1593 14.662C60.1593 14.4447 60.2303 14.2645 60.3725 14.1217C60.5205 13.9726 60.7041 13.8981 60.9232 13.8981C61.1423 13.8981 61.3229 13.9726 61.465 14.1217C61.613 14.2645 61.6871 14.4447 61.6871 14.662C61.6871 14.8794 61.613 15.0626 61.465 15.2117C61.3229 15.3545 61.1423 15.4259 60.9232 15.4259Z" fill="#7D48E8"/>
<path d="M63.1224 15.2117C63.2705 15.3545 63.4541 15.4259 63.6732 15.4259C63.8923 15.4259 64.0729 15.3545 64.215 15.2117C64.363 15.0626 64.4371 14.8794 64.4371 14.662C64.4371 14.4447 64.363 14.2645 64.215 14.1217C64.0729 13.9726 63.8923 13.8981 63.6732 13.8981C63.4541 13.8981 63.2705 13.9726 63.1224 14.1217C62.9803 14.2645 62.9093 14.4447 62.9093 14.662C62.9093 14.8794 62.9803 15.0626 63.1224 15.2117Z" fill="#7D48E8"/>
</g>
<defs>
<clipPath id="clip0_810_59000">
<rect width="81.4826" height="22.6341" fill="white" transform="translate(17.2588 7.41992)"/>
</clipPath>
</defs>
</svg>
